<mxfile host="app.diagrams.net" modified="2022-01-09T13:10:37.040Z" agent="5.0 (Windows)" etag="rrgKLlQ8aIA76og2AqPO" version="15.4.3" type="github">
  <diagram id="C5RBs43oDa-KdzZeNtuy" name="Page-1">
    <mxGraphModel dx="846" dy="392" grid="1" gridSize="10" guides="1" tooltips="1" connect="1" arrows="1" fold="1" page="1" pageScale="1" pageWidth="827" pageHeight="1169" math="0" shadow="0">
      <root>
        <mxCell id="WIyWlLk6GJQsqaUBKTNV-0" />
        <mxCell id="WIyWlLk6GJQsqaUBKTNV-1" parent="WIyWlLk6GJQsqaUBKTNV-0" />
        <mxCell id="1nmihoqW4mfk5_uz0Vci-8" style="edgeStyle=orthogonalEdgeStyle;rounded=0;orthogonalLoop=1;jettySize=auto;html=1;exitX=0.5;exitY=1;exitDx=0;exitDy=0;entryX=0.5;entryY=0;entryDx=0;entryDy=0;" edge="1" parent="WIyWlLk6GJQsqaUBKTNV-1" source="1nmihoqW4mfk5_uz0Vci-0" target="1nmihoqW4mfk5_uz0Vci-1">
          <mxGeometry relative="1" as="geometry" />
        </mxCell>
        <mxCell id="1nmihoqW4mfk5_uz0Vci-0" value="create local folder, git clone oneux_resource_configs " style="rounded=1;whiteSpace=wrap;html=1;fontSize=12;glass=0;strokeWidth=1;shadow=0;" vertex="1" parent="WIyWlLk6GJQsqaUBKTNV-1">
          <mxGeometry x="511" y="80" width="169" height="55" as="geometry" />
        </mxCell>
        <mxCell id="1nmihoqW4mfk5_uz0Vci-9" style="edgeStyle=orthogonalEdgeStyle;rounded=0;orthogonalLoop=1;jettySize=auto;html=1;exitX=0.5;exitY=1;exitDx=0;exitDy=0;" edge="1" parent="WIyWlLk6GJQsqaUBKTNV-1" source="1nmihoqW4mfk5_uz0Vci-1" target="1nmihoqW4mfk5_uz0Vci-4">
          <mxGeometry relative="1" as="geometry" />
        </mxCell>
        <mxCell id="1nmihoqW4mfk5_uz0Vci-1" value="create local folder, git clone app TF repo " style="rounded=1;whiteSpace=wrap;html=1;fontSize=12;glass=0;strokeWidth=1;shadow=0;" vertex="1" parent="WIyWlLk6GJQsqaUBKTNV-1">
          <mxGeometry x="511" y="165" width="169" height="55" as="geometry" />
        </mxCell>
        <mxCell id="1nmihoqW4mfk5_uz0Vci-13" style="edgeStyle=orthogonalEdgeStyle;rounded=0;orthogonalLoop=1;jettySize=auto;html=1;exitX=1;exitY=0.5;exitDx=0;exitDy=0;" edge="1" parent="WIyWlLk6GJQsqaUBKTNV-1" source="1nmihoqW4mfk5_uz0Vci-2" target="1nmihoqW4mfk5_uz0Vci-0">
          <mxGeometry relative="1" as="geometry" />
        </mxCell>
        <mxCell id="1nmihoqW4mfk5_uz0Vci-2" value="read app-resource hierarchy from context" style="rounded=1;whiteSpace=wrap;html=1;fontSize=12;glass=0;strokeWidth=1;shadow=0;" vertex="1" parent="WIyWlLk6GJQsqaUBKTNV-1">
          <mxGeometry x="300" y="80" width="169" height="55" as="geometry" />
        </mxCell>
        <mxCell id="1nmihoqW4mfk5_uz0Vci-11" style="edgeStyle=orthogonalEdgeStyle;rounded=0;orthogonalLoop=1;jettySize=auto;html=1;exitX=0.5;exitY=1;exitDx=0;exitDy=0;entryX=0.5;entryY=0;entryDx=0;entryDy=0;" edge="1" parent="WIyWlLk6GJQsqaUBKTNV-1" source="1nmihoqW4mfk5_uz0Vci-3" target="1nmihoqW4mfk5_uz0Vci-5">
          <mxGeometry relative="1" as="geometry" />
        </mxCell>
        <mxCell id="1nmihoqW4mfk5_uz0Vci-3" value="generate TF file from&amp;nbsp; oneux_resource_config.template" style="rounded=1;whiteSpace=wrap;html=1;fontSize=12;glass=0;strokeWidth=1;shadow=0;" vertex="1" parent="WIyWlLk6GJQsqaUBKTNV-1">
          <mxGeometry x="511" y="340" width="169" height="55" as="geometry" />
        </mxCell>
        <mxCell id="1nmihoqW4mfk5_uz0Vci-10" style="edgeStyle=orthogonalEdgeStyle;rounded=0;orthogonalLoop=1;jettySize=auto;html=1;exitX=0.5;exitY=1;exitDx=0;exitDy=0;entryX=0.5;entryY=0;entryDx=0;entryDy=0;" edge="1" parent="WIyWlLk6GJQsqaUBKTNV-1" source="1nmihoqW4mfk5_uz0Vci-4" target="1nmihoqW4mfk5_uz0Vci-3">
          <mxGeometry relative="1" as="geometry" />
        </mxCell>
        <mxCell id="1nmihoqW4mfk5_uz0Vci-4" value="create new git branch in app TF repo" style="rounded=1;whiteSpace=wrap;html=1;fontSize=12;glass=0;strokeWidth=1;shadow=0;" vertex="1" parent="WIyWlLk6GJQsqaUBKTNV-1">
          <mxGeometry x="511" y="250" width="169" height="55" as="geometry" />
        </mxCell>
        <mxCell id="1nmihoqW4mfk5_uz0Vci-12" style="edgeStyle=orthogonalEdgeStyle;rounded=0;orthogonalLoop=1;jettySize=auto;html=1;exitX=0.5;exitY=1;exitDx=0;exitDy=0;entryX=0.5;entryY=0;entryDx=0;entryDy=0;" edge="1" parent="WIyWlLk6GJQsqaUBKTNV-1" source="1nmihoqW4mfk5_uz0Vci-5" target="1nmihoqW4mfk5_uz0Vci-7">
          <mxGeometry relative="1" as="geometry" />
        </mxCell>
        <mxCell id="1nmihoqW4mfk5_uz0Vci-5" value="git commit" style="rounded=1;whiteSpace=wrap;html=1;fontSize=12;glass=0;strokeWidth=1;shadow=0;" vertex="1" parent="WIyWlLk6GJQsqaUBKTNV-1">
          <mxGeometry x="511" y="410" width="169" height="55" as="geometry" />
        </mxCell>
        <mxCell id="1nmihoqW4mfk5_uz0Vci-17" style="edgeStyle=orthogonalEdgeStyle;rounded=0;orthogonalLoop=1;jettySize=auto;html=1;exitX=1;exitY=0.5;exitDx=0;exitDy=0;entryX=0;entryY=0.5;entryDx=0;entryDy=0;" edge="1" parent="WIyWlLk6GJQsqaUBKTNV-1" source="1nmihoqW4mfk5_uz0Vci-7" target="1nmihoqW4mfk5_uz0Vci-14">
          <mxGeometry relative="1" as="geometry" />
        </mxCell>
        <mxCell id="1nmihoqW4mfk5_uz0Vci-7" value="git push" style="rounded=1;whiteSpace=wrap;html=1;fontSize=12;glass=0;strokeWidth=1;shadow=0;" vertex="1" parent="WIyWlLk6GJQsqaUBKTNV-1">
          <mxGeometry x="511" y="480" width="169" height="55" as="geometry" />
        </mxCell>
        <mxCell id="1nmihoqW4mfk5_uz0Vci-18" style="edgeStyle=orthogonalEdgeStyle;rounded=0;orthogonalLoop=1;jettySize=auto;html=1;exitX=0.5;exitY=1;exitDx=0;exitDy=0;entryX=0.5;entryY=0;entryDx=0;entryDy=0;" edge="1" parent="WIyWlLk6GJQsqaUBKTNV-1" source="1nmihoqW4mfk5_uz0Vci-14" target="1nmihoqW4mfk5_uz0Vci-16">
          <mxGeometry relative="1" as="geometry" />
        </mxCell>
        <mxCell id="1nmihoqW4mfk5_uz0Vci-14" value="run terraform init" style="rounded=1;whiteSpace=wrap;html=1;fontSize=12;glass=0;strokeWidth=1;shadow=0;" vertex="1" parent="WIyWlLk6GJQsqaUBKTNV-1">
          <mxGeometry x="750" y="80" width="169" height="55" as="geometry" />
        </mxCell>
        <mxCell id="1nmihoqW4mfk5_uz0Vci-21" style="edgeStyle=orthogonalEdgeStyle;rounded=0;orthogonalLoop=1;jettySize=auto;html=1;exitX=1;exitY=0.5;exitDx=0;exitDy=0;entryX=0;entryY=0.5;entryDx=0;entryDy=0;" edge="1" parent="WIyWlLk6GJQsqaUBKTNV-1" source="1nmihoqW4mfk5_uz0Vci-15" target="1nmihoqW4mfk5_uz0Vci-20">
          <mxGeometry relative="1" as="geometry" />
        </mxCell>
        <mxCell id="1nmihoqW4mfk5_uz0Vci-26" value="success" style="edgeLabel;html=1;align=center;verticalAlign=middle;resizable=0;points=[];" vertex="1" connectable="0" parent="1nmihoqW4mfk5_uz0Vci-21">
          <mxGeometry x="0.0788" y="2" relative="1" as="geometry">
            <mxPoint x="1" as="offset" />
          </mxGeometry>
        </mxCell>
        <mxCell id="1nmihoqW4mfk5_uz0Vci-27" style="edgeStyle=orthogonalEdgeStyle;rounded=0;orthogonalLoop=1;jettySize=auto;html=1;exitX=0.5;exitY=1;exitDx=0;exitDy=0;entryX=0.592;entryY=1;entryDx=0;entryDy=0;entryPerimeter=0;" edge="1" parent="WIyWlLk6GJQsqaUBKTNV-1" source="1nmihoqW4mfk5_uz0Vci-15" target="1nmihoqW4mfk5_uz0Vci-23">
          <mxGeometry relative="1" as="geometry" />
        </mxCell>
        <mxCell id="1nmihoqW4mfk5_uz0Vci-28" value="failed" style="edgeLabel;html=1;align=center;verticalAlign=middle;resizable=0;points=[];" vertex="1" connectable="0" parent="1nmihoqW4mfk5_uz0Vci-27">
          <mxGeometry x="0.1664" y="-3" relative="1" as="geometry">
            <mxPoint as="offset" />
          </mxGeometry>
        </mxCell>
        <mxCell id="1nmihoqW4mfk5_uz0Vci-15" value="run terrform apply" style="rounded=1;whiteSpace=wrap;html=1;fontSize=12;glass=0;strokeWidth=1;shadow=0;" vertex="1" parent="WIyWlLk6GJQsqaUBKTNV-1">
          <mxGeometry x="750" y="260" width="169" height="55" as="geometry" />
        </mxCell>
        <mxCell id="1nmihoqW4mfk5_uz0Vci-19" style="edgeStyle=orthogonalEdgeStyle;rounded=0;orthogonalLoop=1;jettySize=auto;html=1;exitX=0.5;exitY=1;exitDx=0;exitDy=0;entryX=0.5;entryY=0;entryDx=0;entryDy=0;" edge="1" parent="WIyWlLk6GJQsqaUBKTNV-1" source="1nmihoqW4mfk5_uz0Vci-16" target="1nmihoqW4mfk5_uz0Vci-15">
          <mxGeometry relative="1" as="geometry" />
        </mxCell>
        <mxCell id="1nmihoqW4mfk5_uz0Vci-16" value="run terraform plan" style="rounded=1;whiteSpace=wrap;html=1;fontSize=12;glass=0;strokeWidth=1;shadow=0;" vertex="1" parent="WIyWlLk6GJQsqaUBKTNV-1">
          <mxGeometry x="750" y="170" width="169" height="55" as="geometry" />
        </mxCell>
        <mxCell id="1nmihoqW4mfk5_uz0Vci-24" style="edgeStyle=orthogonalEdgeStyle;rounded=0;orthogonalLoop=1;jettySize=auto;html=1;exitX=0.5;exitY=1;exitDx=0;exitDy=0;" edge="1" parent="WIyWlLk6GJQsqaUBKTNV-1" source="1nmihoqW4mfk5_uz0Vci-20" target="1nmihoqW4mfk5_uz0Vci-22">
          <mxGeometry relative="1" as="geometry" />
        </mxCell>
        <mxCell id="1nmihoqW4mfk5_uz0Vci-20" value="create pull request" style="rounded=1;whiteSpace=wrap;html=1;fontSize=12;glass=0;strokeWidth=1;shadow=0;" vertex="1" parent="WIyWlLk6GJQsqaUBKTNV-1">
          <mxGeometry x="980" y="80" width="169" height="55" as="geometry" />
        </mxCell>
        <mxCell id="1nmihoqW4mfk5_uz0Vci-25" style="edgeStyle=orthogonalEdgeStyle;rounded=0;orthogonalLoop=1;jettySize=auto;html=1;exitX=0.5;exitY=1;exitDx=0;exitDy=0;entryX=0.5;entryY=0;entryDx=0;entryDy=0;" edge="1" parent="WIyWlLk6GJQsqaUBKTNV-1" source="1nmihoqW4mfk5_uz0Vci-22" target="1nmihoqW4mfk5_uz0Vci-23">
          <mxGeometry relative="1" as="geometry" />
        </mxCell>
        <mxCell id="1nmihoqW4mfk5_uz0Vci-22" value="merge pull request " style="rounded=1;whiteSpace=wrap;html=1;fontSize=12;glass=0;strokeWidth=1;shadow=0;" vertex="1" parent="WIyWlLk6GJQsqaUBKTNV-1">
          <mxGeometry x="980" y="170" width="169" height="55" as="geometry" />
        </mxCell>
        <mxCell id="1nmihoqW4mfk5_uz0Vci-23" value="delete branch" style="rounded=1;whiteSpace=wrap;html=1;fontSize=12;glass=0;strokeWidth=1;shadow=0;" vertex="1" parent="WIyWlLk6GJQsqaUBKTNV-1">
          <mxGeometry x="980" y="260" width="169" height="55" as="geometry" />
        </mxCell>
      </root>
    </mxGraphModel>
  </diagram>
</mxfile>
